<mxfile host="app.diagrams.net" modified="2024-04-04T15:08:16.760Z" agent="Mozilla/5.0 (Macintosh; Intel Mac OS X 10_15_7) AppleWebKit/537.36 (KHTML, like Gecko) Chrome/120.0.0.0 Whale/3.24.223.18 Safari/537.36" etag="j_AZ-qzDhGK10RvPTKMx" version="24.2.1" type="github">
  <diagram name="페이지-1" id="J1Tt04icmtqUt2nDNbsf">
    <mxGraphModel dx="1548" dy="997" grid="1" gridSize="10" guides="1" tooltips="1" connect="1" arrows="1" fold="1" page="1" pageScale="1" pageWidth="1169" pageHeight="827" math="0" shadow="0">
      <root>
        <mxCell id="0" />
        <mxCell id="1" parent="0" />
        <mxCell id="ob_Er8QgK_pdc9j6Z_gC-9" value="" style="rounded=1;whiteSpace=wrap;html=1;fillColor=#f5f5f5;fontColor=#333333;strokeColor=#666666;" vertex="1" parent="1">
          <mxGeometry x="390" y="55" width="160" height="290" as="geometry" />
        </mxCell>
        <mxCell id="ob_Er8QgK_pdc9j6Z_gC-1" value="" style="rounded=1;whiteSpace=wrap;html=1;fillColor=#f5f5f5;fontColor=#333333;strokeColor=#666666;" vertex="1" parent="1">
          <mxGeometry x="160" y="120" width="160" height="160" as="geometry" />
        </mxCell>
        <mxCell id="ob_Er8QgK_pdc9j6Z_gC-14" style="rounded=0;orthogonalLoop=1;jettySize=auto;html=1;entryX=0;entryY=0.5;entryDx=0;entryDy=0;exitX=1;exitY=0.5;exitDx=0;exitDy=0;" edge="1" parent="1" source="ob_Er8QgK_pdc9j6Z_gC-2" target="ob_Er8QgK_pdc9j6Z_gC-6">
          <mxGeometry relative="1" as="geometry" />
        </mxCell>
        <mxCell id="ob_Er8QgK_pdc9j6Z_gC-2" value="Inbound Topic" style="rounded=0;whiteSpace=wrap;html=1;" vertex="1" parent="1">
          <mxGeometry x="180" y="170" width="120" height="40" as="geometry" />
        </mxCell>
        <mxCell id="ob_Er8QgK_pdc9j6Z_gC-3" value="Outbound Topic" style="rounded=0;whiteSpace=wrap;html=1;" vertex="1" parent="1">
          <mxGeometry x="180" y="220" width="120" height="40" as="geometry" />
        </mxCell>
        <mxCell id="ob_Er8QgK_pdc9j6Z_gC-16" style="edgeStyle=orthogonalEdgeStyle;rounded=0;orthogonalLoop=1;jettySize=auto;html=1;" edge="1" parent="1" source="ob_Er8QgK_pdc9j6Z_gC-6" target="ob_Er8QgK_pdc9j6Z_gC-7">
          <mxGeometry relative="1" as="geometry" />
        </mxCell>
        <mxCell id="ob_Er8QgK_pdc9j6Z_gC-6" value="Source Processor" style="rounded=0;whiteSpace=wrap;html=1;fillColor=#d5e8d4;strokeColor=#82b366;" vertex="1" parent="1">
          <mxGeometry x="410" y="105" width="120" height="40" as="geometry" />
        </mxCell>
        <mxCell id="ob_Er8QgK_pdc9j6Z_gC-17" style="edgeStyle=orthogonalEdgeStyle;rounded=0;orthogonalLoop=1;jettySize=auto;html=1;entryX=0.5;entryY=0;entryDx=0;entryDy=0;" edge="1" parent="1" source="ob_Er8QgK_pdc9j6Z_gC-7" target="ob_Er8QgK_pdc9j6Z_gC-10">
          <mxGeometry relative="1" as="geometry" />
        </mxCell>
        <mxCell id="ob_Er8QgK_pdc9j6Z_gC-7" value="Stream Processor" style="rounded=0;whiteSpace=wrap;html=1;fillColor=#e1d5e7;strokeColor=#9673a6;" vertex="1" parent="1">
          <mxGeometry x="410" y="165" width="120" height="40" as="geometry" />
        </mxCell>
        <mxCell id="ob_Er8QgK_pdc9j6Z_gC-15" style="rounded=0;orthogonalLoop=1;jettySize=auto;html=1;entryX=1;entryY=0.5;entryDx=0;entryDy=0;exitX=0;exitY=0.5;exitDx=0;exitDy=0;" edge="1" parent="1" source="ob_Er8QgK_pdc9j6Z_gC-8" target="ob_Er8QgK_pdc9j6Z_gC-3">
          <mxGeometry relative="1" as="geometry" />
        </mxCell>
        <mxCell id="ob_Er8QgK_pdc9j6Z_gC-8" value="Sink Processor" style="rounded=0;whiteSpace=wrap;html=1;fillColor=#dae8fc;strokeColor=#6c8ebf;" vertex="1" parent="1">
          <mxGeometry x="410" y="285" width="120" height="40" as="geometry" />
        </mxCell>
        <mxCell id="ob_Er8QgK_pdc9j6Z_gC-18" style="edgeStyle=orthogonalEdgeStyle;rounded=0;orthogonalLoop=1;jettySize=auto;html=1;entryX=0.5;entryY=0;entryDx=0;entryDy=0;" edge="1" parent="1" source="ob_Er8QgK_pdc9j6Z_gC-10" target="ob_Er8QgK_pdc9j6Z_gC-8">
          <mxGeometry relative="1" as="geometry" />
        </mxCell>
        <mxCell id="ob_Er8QgK_pdc9j6Z_gC-10" value="Stream Processor" style="rounded=0;whiteSpace=wrap;html=1;fillColor=#e1d5e7;strokeColor=#9673a6;" vertex="1" parent="1">
          <mxGeometry x="410" y="225" width="120" height="40" as="geometry" />
        </mxCell>
        <mxCell id="ob_Er8QgK_pdc9j6Z_gC-11" value="&lt;b&gt;Kafka Broker&lt;/b&gt;" style="text;html=1;align=center;verticalAlign=middle;whiteSpace=wrap;rounded=0;" vertex="1" parent="1">
          <mxGeometry x="185" y="120" width="110" height="30" as="geometry" />
        </mxCell>
        <mxCell id="ob_Er8QgK_pdc9j6Z_gC-13" value="&lt;b&gt;Kafka Streams&lt;/b&gt;&lt;div&gt;&lt;b&gt;(Application)&lt;/b&gt;&lt;/div&gt;" style="text;html=1;align=center;verticalAlign=middle;whiteSpace=wrap;rounded=0;" vertex="1" parent="1">
          <mxGeometry x="415" y="65" width="110" height="30" as="geometry" />
        </mxCell>
      </root>
    </mxGraphModel>
  </diagram>
</mxfile>
